<svg xmlns="http://www.w3.org/2000/svg" viewBox="0 0 800 260" role="img" aria-labelledby="title desc">
  <title id="title">ZweiKlang Logo</title>
  <desc id="desc">Wordmark with mirrored characters and a central red accent dot.</desc>
  <defs>
    <linearGradient id="ink" x1="0%" y1="0%" x2="100%" y2="100%">
      <stop offset="0%" stop-color="#f8e8b8" />
      <stop offset="60%" stop-color="#fff8e8" />
      <stop offset="100%" stop-color="#e1d7b4" />
    </linearGradient>
    <linearGradient id="shadow" x1="0%" y1="0%" x2="100%" y2="100%">
      <stop offset="0%" stop-color="#fefefe" stop-opacity="0.8" />
      <stop offset="100%" stop-color="#c3d4ff" stop-opacity="0.15" />
    </linearGradient>
    <filter id="glow" x="-20%" y="-20%" width="140%" height="140%" color-interpolation-filters="sRGB">
      <feGaussianBlur stdDeviation="6" result="b" />
      <feMerge>
        <feMergeNode in="b" />
        <feMergeNode in="SourceGraphic" />
      </feMerge>
    </filter>
  </defs>
  <rect width="800" height="260" rx="28" fill="#050b16" />
  <g transform="translate(120 88)" fill="url(#ink)" filter="url(#glow)">
    <path d="M0 102c18 0 31-12 31-31V36h-9v33c0 14-8 22-22 22h-5v11h5Z" />
    <path d="M52 34c0-12-8-20-20-20-11 0-20 8-20 20 0 11 9 19 20 19 12 0 20-8 20-19Zm-30 0c0-7 4-12 10-12 7 0 11 5 11 12 0 6-4 11-11 11-6 0-10-5-10-11Z" />
    <path d="M73 10h-10v92h10V63c0-14 7-21 19-21 11 0 18 8 18 21v39h10V61c0-19-11-31-28-31-9 0-16 3-19 8V10Z" />
    <path d="M137 26v-8h-10v94h10V60c0-14 8-21 19-21 12 0 19 8 19 21v52h10V60c0-19-11-31-28-31-8 0-15 3-19 9Z" />
    <path d="M226 8c-11 0-21 5-27 14-6 8-9 19-9 31 0 11 3 23 9 31 6 9 16 14 27 14 12 0 22-5 28-14 6-8 9-20 9-31 0-12-3-23-9-31-6-9-16-14-28-14Zm0 14c14 0 24 13 24 31s-10 31-24 31c-13 0-23-13-23-31s10-31 23-31Z" />
    <path d="M279 10h-10v92h10V63c0-14 7-21 19-21 11 0 18 8 18 21v39h10V61c0-19-11-31-28-31-9 0-16 3-19 8V10Z" />
    <path d="M343 92c7 7 17 11 29 11 19 0 33-12 33-29 0-12-6-22-19-28l-12-5c-8-3-12-7-12-12 0-6 6-10 14-10 7 0 13 2 19 7l6-8c-6-6-15-9-25-9-17 0-29 10-29 25 0 11 6 20 19 25l12 5c9 4 13 8 13 15 0 9-8 15-19 15-10 0-18-3-24-9l-6 7Z" />
    <path d="M412 18c0-6-5-10-11-10-6 0-11 4-11 10s5 11 11 11c6 0 11-5 11-11Zm0 21h-22v63h22V39Z" />
  </g>
  <circle cx="400" cy="130" r="10" fill="#e14c45" />
  <g transform="translate(120 176) scale(1 -1)" fill="url(#shadow)" opacity="0.68">
    <path d="M0 102c18 0 31-12 31-31V36h-9v33c0 14-8 22-22 22h-5v11h5Z" />
    <path d="M52 34c0-12-8-20-20-20-11 0-20 8-20 20 0 11 9 19 20 19 12 0 20-8 20-19Zm-30 0c0-7 4-12 10-12 7 0 11 5 11 12 0 6-4 11-11 11-6 0-10-5-10-11Z" />
    <path d="M73 10h-10v92h10V63c0-14 7-21 19-21 11 0 18 8 18 21v39h10V61c0-19-11-31-28-31-9 0-16 3-19 8V10Z" />
    <path d="M137 26v-8h-10v94h10V60c0-14 8-21 19-21 12 0 19 8 19 21v52h10V60c0-19-11-31-28-31-8 0-15 3-19 9Z" />
    <path d="M226 8c-11 0-21 5-27 14-6 8-9 19-9 31 0 11 3 23 9 31 6 9 16 14 27 14 12 0 22-5 28-14 6-8 9-20 9-31 0-12-3-23-9-31-6-9-16-14-28-14Zm0 14c14 0 24 13 24 31s-10 31-24 31c-13 0-23-13-23-31s10-31 23-31Z" />
    <path d="M279 10h-10v92h10V63c0-14 7-21 19-21 11 0 18 8 18 21v39h10V61c0-19-11-31-28-31-9 0-16 3-19 8V10Z" />
    <path d="M343 92c7 7 17 11 29 11 19 0 33-12 33-29 0-12-6-22-19-28l-12-5c-8-3-12-7-12-12 0-6 6-10 14-10 7 0 13 2 19 7l6-8c-6-6-15-9-25-9-17 0-29 10-29 25 0 11 6 20 19 25l12 5c9 4 13 8 13 15 0 9-8 15-19 15-10 0-18-3-24-9l-6 7Z" />
    <path d="M412 18c0-6-5-10-11-10-6 0-11 4-11 10s5 11 11 11c6 0 11-5 11-11Zm0 21h-22v63h22V39Z" />
  </g>
</svg>
